PathFileType	4	(X/Y/Z)	pose_F01_0-91.trc
DataRate	CameraRate	NumFrames	NumMarkers	Units	OrigDataRate	OrigDataStartFrame	OrigNumFrames
30	30	8	21	m	30	68	91
Frame#	Time	CHip			RHip			RKnee			RAnkle			RBigToe			RSmallToe			RHeel			LHip			LKnee			LAnkle			LBigToe			LSmallToe			LHeel			Neck			Nose			RShoulder			RElbow			RWrist			LShoulder			LElbow			LWrist			
		X1	Y1	Z1	X2	Y2	Z2	X3	Y3	Z3	X4	Y4	Z4	X5	Y5	Z5	X6	Y6	Z6	X7	Y7	Z7	X8	Y8	Z8	X9	Y9	Z9	X10	Y10	Z10	X11	Y11	Z11	X12	Y12	Z12	X13	Y13	Z13	X14	Y14	Z14	X15	Y15	Z15	X16	Y16	Z16	X17	Y17	Z17	X18	Y18	Z18	X19	Y19	Z19	X20	Y20	Z20	X21	Y21	Z21	
68	2.2666666666666666	-0.2100905179599787	1.8856595333458293	-0.5087676167066515	-0.22624451684178581	1.8848717901814613	-0.43811170461989063	-0.22264147713822785	1.742527975934369	-0.3794485634621751	-0.22497060988372455	1.6017298368341726	-0.3197358646993718	-0.24603838971760672	1.5767102496543857	-0.3512621356867783	-0.2438025252751991	1.58538872056635	-0.32156418705443424	-0.222175766293752	1.592944338807844	-0.3043847332406755	-0.19450131433485596	1.8876615317447063	-0.5776293101441505	-0.18252086023844397	1.7402491654702696	-0.5889363360663108	-0.16740272800603664	1.5967135519300852	-0.6141628572587726	-0.1847365074550622	1.55473036049736	-0.629380479902367	-0.1702965349137334	1.5645703157369628	-0.6578225215364242	-0.16142131648294172	1.5839303793100208	-0.6019426416706681	-0.2017747405586901	2.047376436482973	-0.5235859804161686	-0.22272661716315206	2.1183558185041433	-0.5160804975475056	-0.2223487191325845	2.0467441087063083	-0.4278356939794648	-0.22480396953691265	1.9653849871851572	-0.38816752945250127	-0.21024574362829057	1.89927033045778	-0.36379552751358235	-0.18095661459870832	2.0492522179415884	-0.6201479425858889	-0.17059932670218098	1.9662634245028165	-0.6310677034556226	-0.1595601337682063	1.8940197437110255	-0.6423082726600342
69	2.3	-0.20784593656161277	1.8789877333871725	-0.5099274698735278	-0.22495010396526705	1.876888389091487	-0.4418349867144002	-0.22303508518092022	1.734411294040364	-0.3779987391933387	-0.22500591473398532	1.6015916705963078	-0.31652887927785744	-0.24603838971760672	1.5767102496543857	-0.3512621356867783	-0.2438025252751991	1.58538872056635	-0.32156418705443424	-0.22173666357275879	1.5927112849755167	-0.3007021012682539	-0.19109060727708171	1.8825461719738876	-0.5846536362342757	-0.17907095133409787	1.7364170823399623	-0.5965697821134099	-0.16761317932984704	1.5954364554786835	-0.6136404211972553	-0.18473007845722117	1.5547380943026352	-0.6292323472038301	-0.17034069937245272	1.564720003191062	-0.6577827853727405	-0.1616738082616364	1.582780701745773	-0.6013227966546062	-0.20149238040055226	2.0477260548673293	-0.5320467117742429	-0.2207160962346056	2.120186066120494	-0.527226796519988	-0.21857988617859073	2.0454872619254894	-0.43162242325157085	-0.2261199559383429	1.9601562166926039	-0.39912964341177404	-0.2211740925998642	1.8939221471231162	-0.37014606458227084	-0.17552637467380788	2.0494713397840716	-0.6299564532635115	-0.16634819091804082	1.963029848020697	-0.6348260897651159	-0.157434384603719	1.892878014624387	-0.6445552078774628
70	2.3333333333333335	-0.20866800166516355	1.88185152334276	-0.5222343174753294	-0.225024499058605	1.8796864729273561	-0.45119318673722003	-0.22150274376028645	1.737263572925234	-0.3846925461121927	-0.22504121958424605	1.6014535043584432	-0.31332189385634307	-0.24603838971760672	1.5767102496543857	-0.3512621356867783	-0.2438025252751991	1.58538872056635	-0.32156418705443424	-0.2218368926883226	1.595414589679317	-0.30263267963002977	-0.19070862923509524	1.8839692614874446	-0.5934737039679776	-0.17899441465520102	1.7365648133026867	-0.59679118571059	-0.16534892340599489	1.5941857881311612	-0.6162119609154958	-0.18451605269981328	1.553374089357531	-0.6296103275923458	-0.17005155701075686	1.5631084170418497	-0.6580332678436998	-0.1599470963762098	1.582695674112086	-0.6076955629034383	-0.20044499951887887	2.04806176911307	-0.5375145352762285	-0.22155235574084117	2.1199609841127534	-0.5294354664807991	-0.21866924625378154	2.047159678728195	-0.4407526936018623	-0.22926158016740042	1.959905793352138	-0.40087829777359857	-0.23210244157143786	1.8885739637884527	-0.3764966016509594	-0.17420992780341207	2.050803467222462	-0.6352753585078744	-0.16446437029494745	1.963962333032639	-0.6486300964265886	-0.15558655607079258	1.8899678812588807	-0.6583023675316848
71	2.3666666666666667	-0.21031095829883256	1.8857832816083695	-0.5295378972205316	-0.22288113916870977	1.8837503477740891	-0.462760211618642	-0.22358813513951936	1.7374844088247698	-0.39146767241480884	-0.22507652443450682	1.6013153381205785	-0.31011490843482875	-0.24603838971760672	1.5767102496543857	-0.3512621356867783	-0.2438025252751991	1.58538872056635	-0.32156418705443424	-0.2219371218038864	1.5981178943831174	-0.3045632579918056	-0.19141108125712392	1.8879403702782764	-0.5973821193059056	-0.17709228667312688	1.738067583891114	-0.5990928353531636	-0.16534345754166554	1.5941832242609846	-0.6160881402394699	-0.18445086220712328	1.556101178686154	-0.6299343285224928	-0.16997204112109449	1.565800064492107	-0.6583663104410542	-0.1590784904705914	1.5827371874495326	-0.6044148957890619	-0.19942306987498104	2.047248085039103	-0.5428998246966759	-0.22162487030983946	2.117362675332859	-0.5291091430452048	-0.2196917031726421	2.0460777128233336	-0.4441034220769725	-0.22842613527743508	1.955581602148167	-0.39682418642995126	-0.23412336973297918	1.874985109527389	-0.3628353772633573	-0.17303709024933575	2.0499158103567825	-0.6407427902220163	-0.1622555747322485	1.9632470832962285	-0.6511698446331892	-0.15704883799964614	1.886351427011106	-0.6642429855096834
72	2.4	-0.2105938983458347	1.8833628166512966	-0.5292206913998734	-0.22230433583072154	1.8788286891016535	-0.45890806850661686	-0.22503844700249115	1.7380818992794254	-0.3946222953665532	-0.22511182928476758	1.601177171882714	-0.3069079230133144	-0.24603838971760672	1.5767102496543857	-0.3512621356867783	-0.2438025252751991	1.58538872056635	-0.32156418705443424	-0.2220373509194502	1.6008211990869177	-0.30649383635358146	-0.19162784645213463	1.8854372874850711	-0.5970619829903575	-0.17812113309516994	1.7367783746009577	-0.6019177451105372	-0.16507870036659328	1.5955353425725463	-0.6166829457312698	-0.1842575217602205	1.5547327188815472	-0.6302879783270537	-0.1706367709631069	1.5642437708046495	-0.661768992757053	-0.15904300319452142	1.5828442916806726	-0.6044344187782671	-0.19941978524797974	2.047219536517068	-0.5430390471750417	-0.21965919653251778	2.119667907285122	-0.5317469154258689	-0.2206630600766077	2.0462563765195134	-0.4473183928674201	-0.22730484236576862	1.9563735490315117	-0.39367020314869766	-0.23972279364627627	1.8739528184082557	-0.34705976466696736	-0.17301337899462357	2.049787988556879	-0.6407443508721655	-0.16175180149488344	1.963416598438931	-0.6593347520811782	-0.15957486613713845	1.8878363319416909	-0.6733890363876104
73	2.433333333333333	-0.21153246388218802	1.8834916018617638	-0.532480170286121	-0.2241847014633424	1.8815401907704743	-0.4658372958924039	-0.22500970013133012	1.7378306907307566	-0.3946533283717972	-0.22511182928476758	1.601177171882714	-0.3069079230133144	-0.24603838971760672	1.5767102496543857	-0.3512621356867783	-0.2438025252751991	1.58538872056635	-0.32156418705443424	-0.2217591207054132	1.598906609388667	-0.30669359893956055	-0.19174433862000803	1.886805889418757	-0.5973811376222249	-0.1778575238887006	1.736679095499747	-0.602244248122426	-0.16536464112089566	1.5942010933484523	-0.6161873665240035	-0.18452907416389241	1.5560883006383592	-0.6299880425013293	-0.17121626661057537	1.5646808410639608	-0.6609763616930766	-0.15907428484731703	1.582637827671119	-0.6044566545709135	-0.19939017902926448	2.0472354827050823	-0.5430150734004178	-0.21870928359679476	2.1173200278081308	-0.5364355928181538	-0.2206251536567393	2.046355013215089	-0.4472914520835999	-0.22743379172223238	1.957619359130452	-0.3940349896998477	-0.23927793244141252	1.873401169717714	-0.33797276274811905	-0.1729653823764562	2.049827284798003	-0.6407950257317773	-0.16458564350856392	1.9647115166648497	-0.6602148879290123	-0.16503041186856635	1.8868131626532811	-0.6836235226958788
74	2.466666666666667	-0.2114562602944779	1.8820204656513324	-0.5321713711673911	-0.22313551819053956	1.8799695479695429	-0.46224657655583123	-0.2237213898522656	1.7349771976631214	-0.39131491577213584	-0.22511182928476758	1.601177171882714	-0.3069079230133144	-0.24603838971760672	1.5767102496543857	-0.3512621356867783	-0.2438025252751991	1.58538872056635	-0.32156418705443424	-0.224587557835137	1.5984807557191167	-0.3080186896532832	-0.19246126152789125	1.8841163132410843	-0.5999507034089467	-0.1776502339236021	1.7353500409611746	-0.6022468394436012	-0.16503484439938493	1.5953401370286167	-0.6167250020531915	-0.18520785255519773	1.554708532163838	-0.6334252764734276	-0.1697853216591915	1.5643848812977743	-0.6586104203166835	-0.15896106133703544	1.582372591449909	-0.6044503289767436	-0.19941072378888047	2.045851616075792	-0.5425177499648476	-0.2186840271490005	2.1172100551573383	-0.5365638077967603	-0.21964214783682826	2.04488051527139	-0.4436145575415851	-0.22912669385553958	1.958747756451118	-0.3919752296416769	-0.24324675832236314	1.8775845731352296	-0.34332087379662807	-0.17301978948235355	2.0485582017486568	-0.640413670512557	-0.16770312997023873	1.9620969294645159	-0.6606001945715301	-0.16633711291913103	1.88536668833784	-0.6779983067915302
75	2.5	-0.21168617996377942	1.8808667831754429	-0.5320778164460999	-0.22521320120463886	1.878737169028743	-0.4600476436165458	-0.2248047131696351	1.7354955021975447	-0.3945251099965222	-0.22511182928476758	1.601177171882714	-0.3069079230133144	-0.24603838971760672	1.5767102496543857	-0.3512621356867783	-0.2438025252751991	1.58538872056635	-0.32156418705443424	-0.2213257122073779	1.596460270022181	-0.3069177186047873	-0.19271058588880635	1.8829281625767982	-0.5998917310678962	-0.17777594818418593	1.7365508018226608	-0.6021793391190366	-0.16743203812686014	1.5940227419152817	-0.613946629655467	-0.18263533923983075	1.5549302058664698	-0.6315734781670744	-0.17001949609984332	1.5661692071629887	-0.6584610099734822	-0.1611444873990029	1.5823444409658052	-0.6021756820117722	-0.19942243792227557	2.0457759907151627	-0.5423641517798519	-0.2195686118973231	2.1161911442492745	-0.5389633307370737	-0.2197973161749746	2.0437735827361885	-0.4436422290736636	-0.22747687917467116	1.9566595387676096	-0.39411870149955835	-0.2432201311111696	1.8769795098625492	-0.357661130429668	-0.17216395183202005	2.0484070038858873	-0.6373281555606017	-0.16697282968134583	1.9633019367496114	-0.6578253788039241	-0.16573546560930613	1.8878173337802808	-0.6750731191446211
